<svg width="148" height="117" viewBox="0 0 148 117" fill="none" xmlns="http://www.w3.org/2000/svg">
<g clip-path="url(#clip0_121_5838)">
<path d="M68.8003 50.5996H147.273V116.126H68.8003V50.5996Z" fill="#F5F5F5"/>
<path d="M68.8005 116.123C68.8005 114.281 68.7662 89.8998 68.713 50.5968V50.5093H68.8005H147.266H147.38V50.612C147.38 74.3468 147.38 96.7344 147.38 116.139V116.234H147.262L68.789 116.139L147.262 116.028L147.17 116.123C147.17 96.7154 147.17 74.3316 147.17 50.5968L147.277 50.7034H68.8119L68.8994 50.612C68.8347 89.8998 68.8043 114.281 68.8005 116.123Z" fill="#263238"/>
<path d="M86.318 97.0664H94.4694V116.124H86.318V97.0664Z" fill="#455A64"/>
<path d="M87.2074 107.785C87.2074 107.868 87.2322 107.95 87.2786 108.019C87.325 108.089 87.391 108.143 87.4682 108.175C87.5454 108.207 87.6303 108.215 87.7122 108.199C87.7942 108.183 87.8695 108.142 87.9285 108.083C87.9876 108.024 88.0278 107.949 88.0441 107.867C88.0604 107.785 88.0521 107.7 88.0201 107.623C87.9881 107.546 87.934 107.48 87.8645 107.433C87.7951 107.387 87.7134 107.362 87.6298 107.362C87.5178 107.362 87.4104 107.407 87.3312 107.486C87.2519 107.565 87.2074 107.673 87.2074 107.785Z" fill="#FAFAFA"/>
<path d="M68.7937 79.2652C68.7937 79.3032 86.318 79.3375 107.933 79.3375C129.548 79.3375 147.072 79.3032 147.072 79.2652C147.072 79.2271 129.567 79.1929 107.933 79.1929C86.2989 79.1929 68.7937 79.2233 68.7937 79.2652Z" fill="#E0E0E0"/>
<path d="M68.7937 81.5855C68.7937 81.6273 86.318 81.6578 107.933 81.6578C129.548 81.6578 147.072 81.6273 147.072 81.5855C147.072 81.5436 129.567 81.5132 107.933 81.5132C86.2989 81.5132 68.7937 81.5436 68.7937 81.5855Z" fill="#E0E0E0"/>
<path d="M68.7937 83.9053C68.7937 83.9472 86.318 83.9776 107.933 83.9776C129.548 83.9776 147.072 83.9472 147.072 83.9053C147.072 83.8635 129.567 83.833 107.933 83.833C86.2989 83.833 68.7937 83.8635 68.7937 83.9053Z" fill="#E0E0E0"/>
<path d="M68.7937 86.232C68.7937 86.2738 86.318 86.3043 107.933 86.3043C129.548 86.3043 147.072 86.27 147.072 86.232C147.072 86.1939 129.567 86.1597 107.933 86.1597C86.2989 86.1597 68.7937 86.1863 68.7937 86.232Z" fill="#E0E0E0"/>
<path d="M68.7937 88.5494C68.7937 88.5912 86.318 88.6217 107.933 88.6217C129.548 88.6217 147.072 88.5912 147.072 88.5494C147.072 88.5075 129.567 88.4771 107.933 88.4771C86.2989 88.4771 68.7937 88.5151 68.7937 88.5494Z" fill="#E0E0E0"/>
<path d="M68.7937 90.8702C68.7937 90.912 86.318 90.9425 107.933 90.9425C129.548 90.9425 147.072 90.912 147.072 90.8702C147.072 90.8283 129.567 90.7979 107.933 90.7979C86.2989 90.7979 68.7937 90.8321 68.7937 90.8702Z" fill="#E0E0E0"/>
<path d="M68.7937 93.1929C68.7937 93.2348 86.318 93.2652 107.933 93.2652C129.548 93.2652 147.072 93.2348 147.072 93.1929C147.072 93.1511 129.567 93.1206 107.933 93.1206C86.2989 93.1206 68.7937 93.1549 68.7937 93.1929Z" fill="#E0E0E0"/>
<path d="M68.7937 95.5142C68.7937 95.5561 86.318 95.5903 107.933 95.5903C129.548 95.5903 147.072 95.5561 147.072 95.5142C147.072 95.4723 129.567 95.4419 107.933 95.4419C86.2989 95.4419 68.7937 95.4761 68.7937 95.5142Z" fill="#E0E0E0"/>
<path d="M110.189 59.4736H116.247V71.3467H110.189V59.4736Z" fill="white"/>
<path d="M110.189 71.3491C110.19 71.3288 110.19 71.3085 110.189 71.2882C110.189 71.2426 110.189 71.1855 110.189 71.117C110.189 70.9571 110.189 70.7364 110.189 70.4548C110.189 69.8726 110.189 69.0354 110.189 67.9889C110.189 65.8844 110.211 62.9276 110.223 59.476L110.154 59.5445H116.247L116.175 59.476V62.8096C116.175 63.8942 116.175 64.9445 116.175 65.9453C116.175 67.9508 116.175 69.7736 116.175 71.3377L116.228 71.2844L111.813 71.3111H110.603H110.284H110.17H110.272H110.581H111.783L116.247 71.391H116.3V71.3377C116.3 69.7736 116.3 67.9508 116.3 65.9453C116.3 64.9445 116.3 63.8942 116.3 62.8096V59.476L116.228 59.3999H110.101V59.4684C110.101 62.939 110.128 65.9111 110.135 68.0269C110.135 69.0696 110.135 69.8992 110.135 70.4777C110.135 70.7516 110.135 70.9686 110.135 71.1246C110.135 71.1893 110.135 71.2464 110.135 71.2882C110.15 71.3113 110.168 71.3318 110.189 71.3491Z" fill="#263238"/>
<path d="M113.199 71.3412C113.237 71.3412 113.271 68.6774 113.271 65.3742C113.271 62.0711 113.237 59.4072 113.199 59.4072C113.161 59.4072 113.123 62.0711 113.123 65.3742C113.123 68.6774 113.157 71.3412 113.199 71.3412Z" fill="#263238"/>
<path d="M110.258 65.8238C110.258 65.8656 111.628 65.8999 113.303 65.8999C114.977 65.8999 116.347 65.8656 116.347 65.8238C116.347 65.7819 114.977 65.7515 113.303 65.7515C111.628 65.7515 110.258 65.7857 110.258 65.8238Z" fill="#263238"/>
<path d="M75.6116 97.561H81.6699V109.434H75.6116V97.561Z" fill="#FAFAFA"/>
<path d="M75.6126 109.448C75.6151 109.428 75.6151 109.407 75.6126 109.387C75.6126 109.341 75.6126 109.284 75.6126 109.212C75.6126 109.052 75.6126 108.831 75.6126 108.554C75.6126 107.968 75.6126 107.134 75.6317 106.088C75.6317 103.983 75.6317 101.026 75.6621 97.5749L75.5936 97.6434H81.671C81.69 97.6434 81.534 97.5064 81.5987 97.5749V100.916C81.5987 102.002 81.5987 103.047 81.5987 104.052C81.5987 106.057 81.5987 107.88 81.5987 109.444L81.6519 109.387L77.2414 109.418H76.0274L77.2414 109.448L81.6862 109.478H81.7433V109.448C81.7433 107.884 81.7433 106.061 81.7433 104.056C81.7433 103.051 81.7433 102.004 81.7433 100.92V97.5787C81.8118 97.6434 81.6557 97.4835 81.671 97.5026H75.5441V97.5711C75.5441 101.042 75.5708 104.014 75.5784 106.13C75.5784 107.172 75.5784 107.998 75.5784 108.58C75.5784 108.854 75.5784 109.071 75.5784 109.227C75.5784 109.292 75.5784 109.345 75.5784 109.391C75.5784 109.437 75.6126 109.448 75.6126 109.448Z" fill="#263238"/>
<path d="M78.622 109.445C78.6639 109.445 78.6943 106.781 78.6943 103.478C78.6943 100.175 78.6639 97.5107 78.622 97.5107C78.5802 97.5107 78.5497 100.175 78.5497 103.478C78.5497 106.781 78.5802 109.445 78.622 109.445Z" fill="#263238"/>
<path d="M75.6852 103.909C75.6852 103.951 77.0551 103.982 78.7295 103.982C80.404 103.982 81.7739 103.951 81.7739 103.909C81.7739 103.867 80.404 103.837 78.7295 103.837C77.0551 103.837 75.6852 103.871 75.6852 103.909Z" fill="#263238"/>
<path d="M118.751 75.1951C118.756 75.1406 118.756 75.0859 118.751 75.0314C118.751 74.9135 118.751 74.7651 118.751 74.5786C118.751 74.1752 118.77 73.6158 118.781 72.9308L118.728 72.9803C120.25 72.9803 122.412 73.0031 124.817 73.0031L124.745 72.9308V73.5169C124.745 73.7109 124.745 73.8974 124.745 74.0915V75.1951L124.817 75.1266C123.07 75.1266 121.556 75.1456 120.471 75.1608L119.196 75.1798H118.85H118.721C118.757 75.1852 118.794 75.1852 118.831 75.1798H119.162L120.422 75.1989C121.506 75.1989 123.04 75.2293 124.817 75.2331H124.885V75.1951C124.885 74.8412 124.885 74.472 124.885 74.0953V72.9536L124.809 72.8813C122.401 72.8813 120.243 72.8813 118.721 72.9042H118.671V72.9118C118.671 73.612 118.694 74.1752 118.698 74.59C118.698 74.7689 118.698 74.9173 118.698 75.0314C118.698 75.1456 118.751 75.1951 118.751 75.1951Z" fill="#E0E0E0"/>
<path d="M80.6355 57.1339C80.6398 57.082 80.6398 57.0298 80.6355 56.9779C80.6355 56.8638 80.6355 56.7229 80.6355 56.5555C80.6355 56.175 80.6355 55.6612 80.6621 55.0333L80.6088 55.0866L85.0042 55.1056L84.9319 55.0333V56.1065C84.9319 56.4604 84.9319 56.7991 84.9319 57.1225L85.0004 57.054C83.7331 57.054 82.6448 57.0731 81.8646 57.0883L80.9475 57.1073C80.8334 57.1014 80.7191 57.1014 80.605 57.1073C80.7089 57.116 80.8132 57.116 80.9171 57.1073L81.819 57.1263C82.5801 57.1263 83.7027 57.153 85.0004 57.1606H85.0688V57.0883C85.0688 56.7648 85.0688 56.4261 85.0688 56.0722V54.9991L84.9965 54.9268L80.6012 54.9458H80.5479V55.0257C80.5479 55.6612 80.5708 56.1864 80.5784 56.5783C80.5784 56.742 80.5784 56.8752 80.5784 56.9893C80.5902 57.0401 80.6094 57.0888 80.6355 57.1339Z" fill="#E0E0E0"/>
<path d="M114.854 75.1904H120.749V77.3405H114.854V75.1904Z" fill="#E0E0E0"/>
<path d="M107.616 55.6885H113.511V57.8386H107.616V55.6885Z" fill="#E0E0E0"/>
<path d="M79.1626 73.2329H85.0573V75.383H79.1626V73.2329Z" fill="#E0E0E0"/>
<path d="M69.0626 65.29H73.6938V67.4401H69.0626V65.29Z" fill="#E0E0E0"/>
<path d="M82.1117 28.8184L136.054 29.2065L153.43 50.5971H64.9491L82.1117 28.8184Z" fill="#0D9CFA"/>
<path d="M82.1122 28.8184C82.1122 28.8184 81.7317 29.3473 80.9401 30.3406C80.1486 31.3338 79.0108 32.8027 77.5495 34.6712C74.585 38.4462 70.3191 43.8919 64.9914 50.6542L64.9343 50.5362L136.059 50.5058H153.431L153.351 50.677L135.983 29.275L136.055 29.3093L97.0525 28.9896L86.0357 28.8869C83.486 28.8602 82.1122 28.8298 82.1122 28.8298C82.1122 28.8298 83.467 28.8298 86.009 28.8298L97.0183 28.8792L136.059 29.119H136.101L136.131 29.1532L153.511 50.54L153.648 50.7113H136.074L64.9495 50.6808H64.7973L64.8924 50.5591L77.5076 34.6027L80.9325 30.3025C81.7012 29.3245 82.1122 28.8184 82.1122 28.8184Z" fill="#263238"/>
<path d="M109.191 38.2097L105.051 45.109H86.3622V38.2097L94.5136 23.4102L105.051 38.0841L109.191 38.2097Z" fill="#F5F5F5"/>
<path d="M94.1027 38.4497C92.546 37.8088 91.8037 36.0272 92.4446 34.4706C93.0856 32.9139 94.8672 32.1716 96.4238 32.8126C97.9805 33.4535 98.7228 35.2351 98.0818 36.7917C97.4409 38.3484 95.6593 39.0907 94.1027 38.4497Z" fill="white"/>
<path d="M92.2159 35.6176C92.1914 35.3625 92.2107 35.1051 92.273 34.8565C92.4282 34.1696 92.8186 33.5585 93.3766 33.1288C93.7907 32.8079 94.2791 32.5965 94.7965 32.514C95.3139 32.4315 95.8438 32.4807 96.3372 32.6569C96.9459 32.8754 97.4722 33.2765 97.8443 33.8054C98.2164 34.3343 98.4161 34.9652 98.4161 35.6119C98.4161 36.2585 98.2164 36.8894 97.8443 37.4183C97.4722 37.9473 96.9459 38.3483 96.3372 38.5668C95.8438 38.743 95.3139 38.7922 94.7965 38.7097C94.2791 38.6272 93.7907 38.4158 93.3766 38.0949C92.8186 37.6652 92.4282 37.0541 92.273 36.3672C92.2103 36.1187 92.1909 35.8612 92.2159 35.6061C92.2425 35.6061 92.2159 35.8763 92.3529 36.3368C92.5323 36.9879 92.9232 37.5609 93.4641 37.9655C93.9027 38.295 94.4245 38.4957 94.9708 38.5452C95.5171 38.5948 96.0665 38.4911 96.5572 38.246C97.0479 38.0008 97.4607 37.6238 97.7492 37.1572C98.0377 36.6906 98.1905 36.1528 98.1905 35.6042C98.1905 35.0557 98.0377 34.5179 97.7492 34.0513C97.4607 33.5847 97.0479 33.2077 96.5572 32.9625C96.0665 32.7174 95.5171 32.6137 94.9708 32.6633C94.4245 32.7128 93.9027 32.9135 93.4641 33.2429C92.9232 33.6476 92.5323 34.2205 92.3529 34.8717C92.2273 35.336 92.2425 35.6176 92.2159 35.6176Z" fill="#263238"/>
<path d="M84.284 54.8711H103.909V75.2228H84.284V54.8711Z" fill="white"/>
<path d="M84.2847 75.2253C84.2847 75.2253 84.2847 75.1911 84.2847 75.1264V74.841C84.2847 74.5898 84.2847 74.2245 84.2847 73.745C84.2847 72.7822 84.2847 71.3818 84.3038 69.6008C84.3038 66.0351 84.3038 60.9548 84.3342 54.8698L84.2733 54.9345H103.894L103.822 54.8622C103.822 62.3324 103.822 69.323 103.822 75.2177L103.887 75.153L89.6733 75.1873H85.6813H84.6272H85.6547L89.6314 75.2063L103.887 75.2367H103.948V75.1759C103.948 69.2774 103.948 62.2905 103.948 54.8204V54.748H103.872H84.2505H84.1858V54.8089C84.1858 60.8977 84.2086 66.0047 84.2162 69.578C84.2162 71.3552 84.2162 72.7518 84.2353 73.7108C84.2353 74.1826 84.2353 74.5442 84.2353 74.7953C84.2353 74.9133 84.2353 75.0046 84.2353 75.0731C84.2468 75.1253 84.2634 75.1763 84.2847 75.2253Z" fill="#263238"/>
<path d="M93.7232 74.9498C93.7651 74.9498 93.7955 70.4822 93.7955 64.9756C93.7955 59.4691 93.7651 55.0015 93.7232 55.0015C93.6814 55.0015 93.6509 59.4653 93.6509 64.9756C93.6509 70.486 93.6814 74.9498 93.7232 74.9498Z" fill="#263238"/>
<path d="M84.4976 65.7027C84.4976 65.7407 88.7977 65.775 94.095 65.775C99.3922 65.775 103.692 65.7407 103.692 65.7027C103.692 65.6646 99.396 65.6304 94.095 65.6304C88.7939 65.6304 84.4976 65.6608 84.4976 65.7027Z" fill="#263238"/>
<path d="M73.0168 59.2329H79.0751V71.106H73.0168V59.2329Z" fill="#FAFAFA"/>
<path d="M73.0168 71.1061C73.0183 71.0858 73.0183 71.0654 73.0168 71.0452C73.0168 70.9995 73.0168 70.9424 73.0168 70.8739C73.0168 70.7141 73.0168 70.4934 73.0168 70.2118C73.0168 69.6295 73.0168 68.7961 73.0168 67.7496C73.0168 65.6452 73.0168 62.6883 73.051 59.233L72.9825 59.3015H79.037C79.0561 59.3015 78.9001 59.1645 78.9647 59.2292V60.074C78.9647 60.3594 78.9647 60.6372 78.9647 60.9188V62.5704C78.9647 63.6511 78.9647 64.7014 78.9647 65.7023C78.9647 67.7078 78.9647 69.5306 78.9647 71.0947L79.0218 71.0414L74.6075 71.0718H73.3935H73.0739H72.9635C72.9964 71.0757 73.0296 71.0757 73.0624 71.0718H73.4354H74.6341L79.0827 71.1023H79.1436V71.0452C79.1436 69.4811 79.1436 67.6583 79.1436 65.6528V62.5209C79.1436 61.9767 79.1436 61.4249 79.1436 60.8693V59.1797C79.2083 59.2444 79.0561 59.0884 79.0675 59.1036H72.9445V59.1721C72.9445 62.6427 72.9673 65.6186 72.9749 67.7344C72.9749 68.7733 72.9749 69.6029 72.994 70.1813C72.994 70.4553 72.994 70.6722 72.994 70.8283C72.994 70.8968 72.994 70.95 72.994 70.9919C72.994 71.0338 73.013 71.1099 73.0168 71.1061Z" fill="#263238"/>
<path d="M76.0234 71.1033C76.0652 71.1033 76.0995 68.4395 76.0995 65.1363C76.0995 61.8332 76.0652 59.1655 76.0234 59.1655C75.9815 59.1655 75.9511 61.8294 75.9511 65.1363C75.9511 68.4433 75.9853 71.1033 76.0234 71.1033Z" fill="#263238"/>
<path d="M73.0862 65.583C73.0862 65.6211 74.4561 65.6554 76.1305 65.6554C77.805 65.6554 79.1749 65.6211 79.1749 65.583C79.1749 65.545 77.805 65.5107 76.1305 65.5107C74.4561 65.5107 73.0862 65.5412 73.0862 65.583Z" fill="#263238"/>
<path d="M61.2162 92.9072H64.2035V116.124H61.2162V92.9072Z" fill="#F5F5F5"/>
<path d="M61.2159 116.124C61.2159 116.124 61.2159 115.975 61.2159 115.678C61.2159 115.321 61.2159 114.887 61.2159 114.362C61.2159 113.132 61.2159 111.481 61.1854 109.46C61.1854 105.206 61.1588 99.4213 61.1398 92.9064V92.7998H64.2336C64.4467 93.0129 64.2907 92.8645 64.3402 92.914V94.7939C64.3402 95.418 64.3402 96.0345 64.3402 96.6471V100.22C64.3402 102.538 64.3402 104.722 64.3402 106.732C64.3402 110.663 64.3097 113.894 64.3021 116.124V116.173H64.2527L62.015 116.146C61.5127 116.146 61.2539 116.124 61.2539 116.124C61.2539 116.124 61.5241 116.124 62.015 116.105L64.226 116.074L64.1765 116.124C64.1765 113.894 64.1537 110.663 64.1347 106.732C64.1347 104.722 64.1347 102.546 64.1347 100.22C64.1347 99.0585 64.1347 97.8674 64.1347 96.6471V92.914C64.1804 92.9596 64.0319 92.7998 64.2413 93.0129H61.2539L61.3567 92.9064C61.3567 99.3757 61.3224 105.152 61.311 109.384C61.311 111.416 61.2882 113.075 61.2806 114.331C61.2806 114.864 61.2806 115.305 61.2806 115.667C61.2806 116.028 61.2159 116.124 61.2159 116.124Z" fill="#263238"/>
<path d="M98.5205 92.9072H101.508V116.124H98.5205V92.9072Z" fill="#F5F5F5"/>
<path d="M98.5207 116.124C98.5207 116.124 98.5207 115.975 98.5207 115.678C98.5207 115.321 98.5207 114.887 98.5207 114.362C98.5207 113.132 98.5017 111.481 98.4903 109.46C98.4903 105.206 98.4598 99.4213 98.4446 92.9064V92.7998H101.535C101.748 93.0129 101.596 92.8645 101.641 92.914V96.6471C101.641 97.8687 101.641 99.0598 101.641 100.22C101.641 102.538 101.641 104.722 101.641 106.732C101.641 110.663 101.611 113.894 101.599 116.124V116.173H101.55L99.3122 116.146C98.8099 116.146 98.5511 116.124 98.5511 116.124C98.5511 116.124 98.8251 116.124 99.3313 116.105L101.538 116.074L101.493 116.124C101.493 113.894 101.466 110.663 101.451 106.732C101.451 104.722 101.451 102.546 101.451 100.22C101.451 99.0585 101.451 97.8674 101.451 96.6471V92.914C101.497 92.9596 101.344 92.7998 101.554 93.0129H98.5663L98.6729 92.9064C98.6539 99.3757 98.6387 105.152 98.6272 109.384C98.6272 111.416 98.6044 113.075 98.5968 114.331C98.5968 114.864 98.5968 115.305 98.5968 115.667C98.5968 116.028 98.5207 116.124 98.5207 116.124Z" fill="#263238"/>
<path d="M121.903 93.0251H57.3013L71.3549 81.4146H106.32L121.903 93.0251Z" fill="#0D9CFA"/>
<g opacity="0.3">
<path d="M121.903 93.0251H57.3012L71.3548 81.4146H106.32L121.903 93.0251Z" fill="black"/>
</g>
<path d="M106.318 81.4146L94.0836 93.0251H121.993L106.318 81.4146Z" fill="#0D9CFA"/>
<path d="M86.3622 38.2128H84.1056L93.4784 22.0396L94.5135 23.4133L86.3622 38.2128Z" fill="#0D9CFA"/>
<path d="M94.5261 23.4146L93.4834 22.0332L84.0915 38.2065H86.3748L94.5261 23.4146ZM93.4796 22.0522L94.5033 23.4108L86.3748 38.1989H84.141L93.4796 22.0522Z" fill="#263238"/>
<g opacity="0.3">
<path d="M86.3621 38.2123H84.1054L93.4783 22.0391L94.5134 23.4128L86.3621 38.2123Z" fill="black"/>
</g>
<path d="M105.052 45.1087V38.0952H109.253L105.052 45.1087Z" fill="#EBEBEB"/>
<path d="M109.192 38.2121H112.571L100.87 21.9551L93.4793 22.0388L105.052 38.0865L109.192 38.2121Z" fill="#0D9CFA"/>
<path d="M109.207 38.2101C109.207 38.2101 108.826 38.2101 108.122 38.2101L105.078 38.1455H105.021V38.1226L93.4104 22.1054L93.2886 21.9417H93.4941L96.919 21.9037L100.877 21.8618H100.93L100.96 21.9037C105.976 28.9134 110.212 34.8423 112.62 38.1911L112.677 38.271H112.579L110.063 38.2482C109.492 38.2482 109.199 38.2216 109.199 38.2216C109.199 38.2216 109.492 38.2025 110.063 38.1949L112.579 38.1721L112.537 38.252L100.793 22.0254L100.877 22.0711L96.9228 22.113L93.4979 22.151L93.5816 21.9836L105.097 38.0503L105.051 38.0275L108.096 38.1493C108.826 38.1797 109.207 38.2101 109.207 38.2101Z" fill="#263238"/>
<path d="M128.581 50.6641C128.638 50.6641 128.687 65.319 128.687 83.3912C128.687 101.463 128.638 116.118 128.581 116.118C128.524 116.118 128.474 101.467 128.474 83.3912C128.474 65.3152 128.524 50.6641 128.581 50.6641Z" fill="#263238"/>
<path d="M108.108 97.9097H114.166V109.783H108.108V97.9097Z" fill="#FAFAFA"/>
<path d="M108.108 109.786C108.109 109.764 108.109 109.743 108.108 109.721C108.108 109.675 108.108 109.622 108.108 109.55C108.108 109.39 108.108 109.169 108.108 108.888C108.108 108.305 108.108 107.472 108.127 106.426C108.127 104.321 108.127 101.364 108.161 97.9127L108.093 97.9812H114.155C114.174 97.9812 114.018 97.8442 114.083 97.9089V99.5985C114.083 100.158 114.083 100.706 114.083 101.25C114.083 102.333 114.083 103.379 114.083 104.386C114.083 106.391 114.083 108.214 114.083 109.778L114.14 109.721L109.725 109.752H108.511H108.192H108.081H108.18H108.492H109.691L114.155 109.828H114.208V109.774C114.208 108.21 114.208 106.388 114.208 104.382C114.208 103.367 114.208 102.322 114.208 101.246C114.208 100.702 114.208 100.154 114.208 99.5947V97.9165C114.273 97.9812 114.121 97.8252 114.132 97.8404H108.078H108.009V97.9089C108.009 101.379 108.032 104.352 108.04 106.467C108.04 107.506 108.04 108.336 108.04 108.914C108.04 109.192 108.04 109.405 108.04 109.561C108.04 109.63 108.04 109.683 108.04 109.729C108.04 109.774 108.104 109.786 108.108 109.786Z" fill="#263238"/>
<path d="M111.11 109.775C111.152 109.775 111.186 107.111 111.186 103.808C111.186 100.505 111.152 97.8413 111.11 97.8413C111.068 97.8413 111.037 100.505 111.037 103.808C111.037 107.111 111.075 109.775 111.11 109.775Z" fill="#263238"/>
<path d="M108.176 104.261C108.176 104.303 109.546 104.333 111.22 104.333C112.895 104.333 114.265 104.303 114.265 104.261C114.265 104.219 112.895 104.188 111.22 104.188C109.546 104.188 108.176 104.219 108.176 104.261Z" fill="#263238"/>
<g clip-path="url(#clip1_121_5838)">
<path d="M73.225 109.854H40.0393C38.379 109.854 37.0331 111.199 37.0331 112.86V119.234C37.0331 120.894 38.379 122.24 40.0393 122.24H73.225C74.8852 122.24 76.2312 120.894 76.2312 119.234V112.86C76.2312 111.199 74.8852 109.854 73.225 109.854Z" fill="#455A64"/>
<path d="M66.5161 50.5528C66.3859 49.4943 65.9234 44.3352 65.8094 43.5535C65.6756 42.4826 65.1472 41.5001 64.3274 40.7981C63.5034 40.1239 62.2723 39.8894 61.344 40.417C61.0388 40.5166 60.7651 40.6949 60.5507 40.9339C60.3363 41.1729 60.1886 41.4642 60.1226 41.7784C58.4453 49.6506 59.3182 57.8615 58.8817 65.9357C61.7511 66.2125 65.5586 65.7793 68.4182 65.4438C68.0013 59.0438 67.3499 57.4218 66.5161 50.5528Z" fill="#263238"/>
<path d="M66.0171 61.5323C65.9966 61.4656 65.9846 61.3967 65.9812 61.3271C65.9649 61.1707 65.9422 60.9753 65.9161 60.7343C65.864 60.1936 65.7956 59.4576 65.7076 58.5586C65.5513 56.6956 65.3363 54.1649 65.0953 51.3704C64.9846 49.9666 64.8771 48.6313 64.7696 47.4131C64.7208 46.8041 64.6784 46.2276 64.6361 45.6837C64.6135 45.1848 64.547 44.6889 64.4374 44.2017C64.3702 43.8498 64.2262 43.517 64.0157 43.227C63.8051 42.9371 63.5332 42.6972 63.2193 42.5244C62.9802 42.413 62.7208 42.352 62.4572 42.3452C62.4572 42.3452 62.4734 42.3452 62.5093 42.3452C62.5612 42.3393 62.6137 42.3393 62.6656 42.3452C62.8671 42.3485 63.0657 42.394 63.2486 42.4788C63.5415 42.6116 63.8001 42.81 64.0042 43.0585C64.2723 43.3891 64.4636 43.7752 64.5644 44.1887C64.6855 44.6812 64.7607 45.1838 64.7892 45.6902C64.838 46.2341 64.8869 46.8106 64.939 47.4164C65.04 48.6378 65.154 49.9731 65.2647 51.3737C65.4829 54.1714 65.6783 56.7021 65.8249 58.5684C65.8868 59.4673 65.9356 60.1969 65.9715 60.7473C65.9715 60.9884 65.9943 61.187 66.004 61.3434C66.0145 61.4058 66.0188 61.469 66.0171 61.5323Z" fill="#455A64"/>
<path d="M63.2493 58.7709C63.2107 58.6196 63.1889 58.4645 63.1841 58.3084C63.1548 58.0087 63.1223 57.5756 63.0864 57.0381C63.0148 55.9666 62.9431 54.4847 62.878 52.8464C62.8128 51.2081 62.7672 49.762 62.7282 48.6514C62.7119 48.1433 62.6988 47.7166 62.6891 47.3779C62.6715 47.2231 62.6715 47.0669 62.6891 46.9121C62.7276 47.0634 62.7495 47.2185 62.7542 47.3746C62.7835 47.6742 62.8161 48.1074 62.8519 48.6448C62.9236 49.7164 62.9952 51.1983 63.0604 52.8366C63.1255 54.4749 63.1711 55.921 63.2102 57.0316C63.2265 57.5397 63.2395 57.9664 63.2525 58.3051C63.2683 58.46 63.2672 58.6162 63.2493 58.7709Z" fill="#455A64"/>
<path d="M43.2346 61.6562L48.9214 59.7606L57.7381 59.4609L65.1478 61.7408L68.9552 69.3557L66.0956 85.4421L71.3296 95.8026L57.3114 98.4343L45.0651 92.7541L44.0196 91.9626L41.9384 64.5549L43.2346 61.6562Z" fill="#0D9CFA"/>
<path d="M43.2478 61.6558C43.2478 61.6558 38.7368 63.5285 38.2645 68.5215C38.0822 70.4497 36.724 79.4781 36.724 79.4781L30.3402 78.7192L28.7997 83.8099C28.7997 83.8099 35.9358 87.5294 38.1375 88.0115C41.9417 88.8453 43.7819 86.7087 43.7819 86.7087L43.2478 61.6558Z" fill="#0D9CFA"/>
<path d="M42.0294 67.7437C42.035 67.8272 42.035 67.9109 42.0294 67.9944C42.0294 68.1703 42.0294 68.4081 42.0066 68.7012C41.9838 68.9943 41.9805 69.3852 41.9838 69.8216C41.9871 70.2581 41.9838 70.7564 42.0001 71.3068C42.0164 71.8573 42.0294 72.4565 42.075 73.1014C42.1206 73.7463 42.1694 74.4368 42.2248 75.1599C42.3584 76.6092 42.5505 78.1986 42.7557 79.863C43.1987 83.1916 43.6188 86.2076 43.8142 88.4029C43.8696 88.9533 43.9054 89.4484 43.9347 89.8848C43.9641 90.3212 43.9901 90.699 43.9966 91.0052C44.0031 91.3114 44.0162 91.5361 44.0227 91.7152C44.0319 91.7975 44.0319 91.8805 44.0227 91.9628C44.0069 91.8822 43.9971 91.8005 43.9934 91.7185C43.9934 91.5394 43.9608 91.3048 43.938 91.0117C43.9152 90.7186 43.8891 90.3277 43.8468 89.8946C43.8045 89.4614 43.7654 88.9631 43.7002 88.4159C43.4755 86.2272 43.0488 83.2047 42.5929 79.8858C42.3779 78.2182 42.202 76.6288 42.075 75.1729C42.0229 74.4466 41.9643 73.7561 41.9415 73.1112C41.9187 72.4663 41.8893 71.8605 41.8861 71.3068C41.8828 70.7531 41.8861 70.2581 41.8861 69.8216C41.8861 69.3852 41.9121 69.0041 41.9382 68.698C41.9643 68.3918 41.9773 68.1703 41.9903 67.9912C41.9958 67.9077 42.0088 67.8248 42.0294 67.7437Z" fill="#263238"/>
<path d="M30.0361 68.6979C30.0361 68.6979 31.9903 66.8121 32.7232 67.0401C33.2289 67.2206 33.6939 67.4996 34.0911 67.8609C34.0911 67.8609 34.8337 67.4212 35.2343 67.8609C35.5457 68.2424 35.8133 68.6575 36.0323 69.0986C36.0323 69.0986 36.7423 68.9943 37.2895 69.9063C37.8367 70.8183 39.1883 73.8929 39.6964 74.4075C40.2165 74.9004 40.846 75.2632 41.5334 75.466C42.2597 75.72 48.321 77.772 48.321 77.772L46.0899 83.3349C46.0899 83.3349 37.1755 78.1237 36.8335 77.7785C36.4915 77.4332 33.8078 75.6647 33.4071 74.5801C33.0065 73.4955 30.0361 70.1701 30.0361 70.1701V68.6979Z" fill="#FFBE9D"/>
<path d="M35.9352 70.9026C35.9181 70.9812 35.8811 71.0541 35.8277 71.1143C35.6982 71.2984 35.52 71.4427 35.3131 71.5312L35.3457 71.4726C35.4019 71.8997 35.3037 72.3328 35.0688 72.694C34.9997 72.8042 34.9165 72.9049 34.8213 72.9936C34.7173 73.0987 34.5806 73.1654 34.4337 73.1825C34.3503 73.1873 34.2674 73.168 34.1946 73.127C34.1219 73.086 34.0624 73.025 34.0233 72.9513C33.9535 72.8175 33.9103 72.6715 33.8963 72.5213C33.8279 72.0132 33.7628 71.5442 33.7139 71.0915C33.6964 70.9778 33.7015 70.8617 33.7289 70.7499C33.7563 70.6382 33.8054 70.5329 33.8735 70.4401C34.0028 70.3 34.1605 70.189 34.336 70.1144C34.5793 70.0203 34.8128 69.9025 35.033 69.7627C35.1796 69.6584 35.2382 69.5705 35.2512 69.577C35.2642 69.5835 35.2186 69.6845 35.0753 69.8148C34.8645 69.9791 34.6336 70.116 34.3881 70.2219C34.232 70.3008 34.0944 70.4118 33.9842 70.5476C33.8771 70.7073 33.8351 70.9019 33.867 71.0915C33.9289 71.5345 33.994 72.01 34.0624 72.5116C34.0917 72.7786 34.2024 73.0522 34.4207 73.0327C34.5304 73.0022 34.6329 72.9502 34.7224 72.8798C34.8119 72.8093 34.8864 72.7218 34.9418 72.6223C35.1636 72.2915 35.268 71.8958 35.2382 71.4986V71.4563H35.2773C35.4736 71.3819 35.649 71.2613 35.7886 71.1045C35.8831 70.9677 35.9254 70.8961 35.9352 70.9026Z" fill="#EB996E"/>
<path d="M36.4999 72.557C36.4999 72.5961 36.1905 72.4821 35.9821 72.1727C35.7736 71.8633 35.7736 71.5474 35.8192 71.5474C35.8648 71.5474 35.9365 71.8079 36.1221 72.0783C36.3078 72.3486 36.526 72.5147 36.4999 72.557Z" fill="#EB996E"/>
<path d="M36.2804 76.1364C36.2283 76.1364 36.2479 75.5729 36.0362 74.928C35.8858 74.5462 35.7162 74.1723 35.5281 73.8076C35.8594 74.0835 36.0943 74.4577 36.199 74.8759C36.3554 75.2776 36.3839 75.7179 36.2804 76.1364Z" fill="#EB996E"/>
<path d="M33.9409 71.492C33.9309 71.5854 33.9032 71.676 33.8595 71.7591C33.7705 72.0095 33.6096 72.2282 33.397 72.3877C33.2404 72.4999 33.0477 72.5499 32.8563 72.5277C32.7464 72.5075 32.6424 72.463 32.5517 72.3977C32.461 72.3324 32.3859 72.2478 32.3319 72.1499C32.2159 71.9474 32.1334 71.7274 32.0876 71.4985C32.0278 71.2641 31.9843 71.0257 31.9574 70.7852C31.9077 70.3065 32.0225 69.8252 32.2831 69.4205C32.4918 69.0975 32.754 68.8123 33.0582 68.577C33.2579 68.4172 33.4667 68.2693 33.6836 68.134C33.7588 68.0772 33.8423 68.0322 33.9311 68.0005C33.9474 68.0265 33.6054 68.2513 33.1364 68.6519C32.8541 68.8902 32.6111 69.1716 32.4166 69.4857C32.1768 69.8623 32.0702 70.3083 32.1137 70.7527C32.1396 70.9864 32.1809 71.2181 32.2375 71.4464C32.2778 71.6561 32.3503 71.8582 32.4524 72.0457C32.493 72.1272 32.5511 72.1987 32.6227 72.255C32.6942 72.3113 32.7773 72.3511 32.8661 72.3714C33.0243 72.3944 33.1854 72.3585 33.3188 72.2704C33.521 72.1302 33.6827 71.9392 33.7878 71.7167C33.8285 71.6353 33.88 71.5597 33.9409 71.492Z" fill="#EB996E"/>
<g opacity="0.3">
<path d="M69.1962 109.049L52.9112 108.498C51.9536 108.466 50.9016 108.462 50.1623 109.071C49.4229 109.681 49.2438 110.596 49.0614 111.475C48.2385 115.468 47.4133 119.461 46.5861 123.454L47.1039 124.344C50.3404 122.336 52.7216 119.205 53.7906 115.55C54.0707 114.573 54.3801 113.42 55.3311 113.068C55.7609 112.944 56.2132 112.921 56.6535 112.999L60.5098 113.377C62.3565 113.563 64.2716 113.739 66.0239 113.133C67.7762 112.527 69.3037 110.902 69.1962 109.049Z" fill="black"/>
</g>
<path d="M45.4038 90.689C45.4038 90.689 42.5214 89.4384 39.1797 91.4349C36.6197 92.9657 20.1848 119.546 20.1848 119.546L30.8124 126.842L45.4038 105.202L51.3902 110.355C51.3902 110.355 63.7668 112.863 67.4505 111.28C71.1342 109.697 73.1568 105.502 72.8604 101.913C72.7132 99.8033 72.1996 97.7357 71.3426 95.8025C67.0792 96.454 64.1772 98.0043 58.3472 95.2098L45.4038 90.689Z" fill="#263238"/>
<path d="M44.9869 104.088C44.9869 104.088 52.6343 107.095 52.7321 109.179C52.8298 111.264 42.3683 138.092 42.3683 138.092L31.8156 134.245L37.4795 115.898C37.4795 115.898 39.8376 109.231 41.6094 107.43C43.3812 105.629 44.9869 104.088 44.9869 104.088Z" fill="#263238"/>
<path d="M34.8049 96.9978C34.8049 96.9978 34.7853 97.0368 34.7398 97.1085L34.528 97.4342L33.7073 98.6784C32.9875 99.7695 31.942 101.349 30.6327 103.336C28.0271 107.319 24.3401 112.951 20.2526 119.598L20.2298 119.491L29.6523 125.949C30.0594 126.233 30.4666 126.51 30.8607 126.78L30.7434 126.803L45.3543 105.179C45.9693 104.688 46.463 104.062 46.7972 103.349C47.0983 102.715 47.3046 102.04 47.4095 101.346C47.5584 100.442 47.5013 99.5153 47.2425 98.6361C46.9836 97.757 46.5297 96.9475 45.9145 96.2682C45.791 96.1313 45.6606 96.0009 45.5237 95.8773C45.4325 95.7927 45.3902 95.7471 45.3902 95.7471C45.5902 95.8904 45.7776 96.0506 45.9504 96.2259C46.4422 96.7447 46.8362 97.3483 47.1131 98.0074C47.5567 99.0596 47.6955 100.215 47.5137 101.343C47.4137 102.046 47.2096 102.731 46.9079 103.375C46.5702 104.107 46.0674 104.75 45.439 105.254L30.8704 126.894L30.8216 126.965L30.7532 126.917L29.5676 126.086L20.1516 119.621L20.0897 119.575L20.1288 119.51C24.2261 112.863 27.9196 107.248 30.5512 103.277L33.6682 98.6458L34.5085 97.4147L34.73 97.089C34.7533 97.0572 34.7783 97.0268 34.8049 96.9978Z" fill="#455A64"/>
<path d="M42.4489 138.163C42.4573 138.124 42.4693 138.086 42.4847 138.049C42.5107 137.965 42.5498 137.854 42.5987 137.724C42.7094 137.421 42.8658 136.994 43.0612 136.444C43.4748 135.326 44.0643 133.724 44.7906 131.747C46.253 127.77 48.2659 122.302 50.4937 116.247C51.0115 114.817 51.5164 113.417 51.9886 112.058C52.2668 111.417 52.4246 110.731 52.4544 110.033C52.4408 109.366 52.2123 108.722 51.803 108.196C51.4025 107.695 50.912 107.275 50.3569 106.955C49.8332 106.64 49.2802 106.377 48.7056 106.17C47.6664 105.787 46.5901 105.514 45.4942 105.355L45.302 105.326L45.4746 105.238C46.4032 104.745 47.1886 104.02 47.7545 103.134C48.1863 102.464 48.4992 101.725 48.6795 100.949C48.7913 100.457 48.8503 99.9547 48.8554 99.4505C48.8554 99.2779 48.8554 99.1476 48.8554 99.0564C48.8518 99.0119 48.8518 98.9673 48.8554 98.9229C48.8656 98.9666 48.8711 99.0114 48.8717 99.0564C48.8717 99.1443 48.8945 99.2779 48.8977 99.4505C48.907 99.9593 48.8579 100.467 48.7512 100.965C48.5841 101.755 48.2763 102.508 47.8425 103.19C47.2725 104.099 46.474 104.842 45.5267 105.346L45.5072 105.228C46.6183 105.379 47.7102 105.647 48.7642 106.03C49.3466 106.241 49.9081 106.506 50.4416 106.821C51.0141 107.148 51.5202 107.58 51.9333 108.095C52.3713 108.645 52.6192 109.323 52.64 110.026C52.6127 110.744 52.4537 111.45 52.171 112.11C51.6988 113.472 51.1939 114.869 50.6761 116.302C48.4678 122.36 46.4159 127.829 44.9242 131.783C44.1783 133.753 43.5693 135.366 43.1459 136.463C42.9374 137.007 42.7713 137.44 42.654 137.733L42.5238 138.059C42.5028 138.097 42.4777 138.132 42.4489 138.163Z" fill="#455A64"/>
<path d="M66.0464 104.089C66.0922 103.463 66.0539 102.834 65.9324 102.219C65.5635 100.745 64.7601 99.4165 63.6264 98.4051C62.4739 97.4164 61.1878 96.5952 59.806 95.9656L58.5553 95.3663C58.3968 95.3037 58.2451 95.2251 58.1025 95.1318C58.2668 95.1769 58.4269 95.2357 58.5813 95.3077C58.8842 95.4315 59.3207 95.6139 59.8548 95.8549C61.2653 96.4606 62.5746 97.2789 63.7372 98.2814C64.8974 99.31 65.7051 100.677 66.0464 102.19C66.1371 102.647 66.1645 103.115 66.1278 103.581C66.1278 103.743 66.0855 103.87 66.0757 103.955C66.0726 104.001 66.0627 104.046 66.0464 104.089Z" fill="#455A64"/>
<g opacity="0.3">
<path d="M60.5099 86.0316C59.9562 86.5821 59.3406 87.1455 58.5557 87.2725C57.875 87.3865 57.191 87.1357 56.5429 86.8915L45.5831 82.7192L44.6971 83.9309C48.4688 86.9924 53.1816 89.673 57.8359 90.7966C58.6021 90.9738 59.3971 90.9865 60.1685 90.8338C60.9399 90.6811 61.6702 90.3665 62.311 89.9107C63.2881 89.1974 63.8842 88.0868 64.376 86.9794C65.5162 84.4063 66.2544 81.6733 66.5647 78.876C64.7546 81.4298 62.7289 83.8238 60.5099 86.0316Z" fill="black"/>
</g>
<path d="M63.3203 65.2192C63.0435 65.5123 56.6663 79.1201 56.6663 79.1201L44.2896 76.3549L42.8956 83.1653C42.8956 83.1653 54.1095 88.142 57.0441 89.0279C58.9168 89.5914 60.2066 89.4741 62.0436 87.7251C63.8805 85.9761 68.5283 74.6971 69.0494 72.44C69.5445 70.2806 71.3293 64.5548 65.141 61.7407L63.3203 65.2192Z" fill="#0D9CFA"/>
<path d="M34.7369 74.0035L25.8388 61.6725C25.7529 61.5576 25.6353 61.4705 25.5004 61.4218C25.3655 61.3732 25.2193 61.3652 25.0799 61.3989L16.2143 63.4182C16.1025 63.4352 15.9971 63.481 15.9083 63.5511C15.8196 63.6212 15.7507 63.7132 15.7083 63.818C15.6659 63.9229 15.6515 64.0369 15.6666 64.149C15.6816 64.2611 15.7256 64.3673 15.7942 64.4572L24.9138 76.9348C25.0189 77.0717 25.1684 77.1677 25.3366 77.2064C25.5048 77.245 25.6812 77.2238 25.8355 77.1465L26.7801 76.6775C26.8361 76.6501 26.8951 76.6294 26.9559 76.6156L34.3038 75.0555C34.4189 75.0418 34.5283 74.9976 34.6207 74.9275C34.7131 74.8574 34.785 74.7639 34.8292 74.6567C34.8734 74.5494 34.8881 74.4324 34.8719 74.3175C34.8556 74.2027 34.8091 74.0943 34.7369 74.0035Z" fill="#263238"/>
<path d="M34.736 74.0036C34.766 74.038 34.7912 74.0764 34.8109 74.1176C34.8708 74.2422 34.8879 74.383 34.8597 74.5182C34.8379 74.6292 34.789 74.733 34.7174 74.8204C34.6458 74.9079 34.5537 74.9764 34.4494 75.0198C34.1953 75.1078 33.9054 75.1501 33.5797 75.2315L28.0233 76.4496L27.1243 76.6451C26.9726 76.6704 26.8261 76.721 26.6912 76.7949L26.2547 77.0131C26.1082 77.0848 25.9681 77.1597 25.8053 77.2346C25.6321 77.3043 25.4401 77.3119 25.262 77.2561C25.0839 77.2003 24.9306 77.0845 24.8282 76.9284L24.5025 76.505L21.848 72.8735L15.7444 64.542C15.6631 64.4424 15.6093 64.3233 15.5882 64.1965C15.5671 64.0697 15.5793 63.9396 15.6238 63.819C15.6701 63.7 15.7447 63.5942 15.8412 63.5108C15.9377 63.4273 16.0532 63.3687 16.1775 63.3402L17.4803 63.0405L20.0469 62.4543L24.9063 61.3534C25.0066 61.3268 25.1091 61.3094 25.2125 61.3013C25.3237 61.2973 25.4345 61.3162 25.5382 61.3567C25.6396 61.3957 25.7317 61.4556 25.8085 61.5326C25.8776 61.6059 25.9398 61.6855 25.9942 61.7703L26.6618 62.6986L27.9386 64.4769L30.2185 67.6655L33.5244 72.2937L34.4168 73.5574L34.6448 73.8831C34.6717 73.9209 34.6967 73.96 34.7197 74.0004C34.6857 73.9686 34.6562 73.9325 34.6317 73.8929L34.3875 73.5672L33.4755 72.3328L30.124 67.7372L27.8181 64.5583L26.5348 62.7865L25.8639 61.8615C25.7788 61.701 25.6423 61.5737 25.4763 61.5C25.393 61.4693 25.3045 61.4549 25.2157 61.4576C25.123 61.4639 25.0313 61.4803 24.9421 61.5065L20.086 62.6171L17.5162 63.2034L16.2134 63.503C16.1157 63.5255 16.025 63.5713 15.949 63.6365C15.873 63.7018 15.8139 63.7845 15.7769 63.8776C15.7433 63.9727 15.7349 64.075 15.7526 64.1743C15.7703 64.2736 15.8135 64.3667 15.8779 64.4443C18.0405 67.4017 20.112 70.2157 21.9718 72.7823C22.9065 74.0623 23.7957 75.2804 24.6262 76.4236L24.9519 76.847C25.0354 76.9816 25.1651 77.0812 25.3167 77.1271C25.4652 77.1725 25.6246 77.1668 25.7694 77.1108C25.9127 77.0457 26.0658 76.9675 26.2124 76.8959L26.6358 76.6842C26.7821 76.6077 26.9391 76.5538 27.1015 76.5246L28.0037 76.3357L33.5667 75.1696C33.8924 75.0947 34.1986 75.0556 34.4331 74.9775C34.532 74.9387 34.6199 74.8762 34.6892 74.7956C34.7585 74.715 34.8069 74.6186 34.8304 74.515C34.8601 74.3866 34.8487 74.2522 34.7979 74.1307C34.7588 74.0427 34.7295 74.0069 34.736 74.0036Z" fill="#455A64"/>
<path d="M34.5914 74.8436C34.5305 74.7811 34.4749 74.7135 34.4252 74.6417L33.9758 74.0522L32.3473 71.8537C30.9728 69.9777 29.0903 67.4112 27.0188 64.571C26.4977 63.8675 25.9961 63.1445 25.5043 62.5094C25.3676 62.3758 25.194 62.2862 25.006 62.2521C24.8178 62.218 24.6242 62.2315 24.4425 62.2911L23.296 62.5484L19.3388 63.4343L16.6648 64.0174L15.9385 64.1672C15.854 64.1885 15.768 64.2027 15.6812 64.2095C15.7615 64.1778 15.8443 64.1528 15.9287 64.1346L16.6517 63.9555L19.3127 63.3041L23.2635 62.3823L24.4067 62.1185C24.6113 62.0565 24.8274 62.042 25.0385 62.0762C25.2587 62.1168 25.4617 62.2223 25.6215 62.3791C26.1492 63.0533 26.628 63.747 27.1556 64.4603L32.4417 71.7983L34.0279 74.0261L34.4513 74.6352C34.5053 74.6994 34.5523 74.7693 34.5914 74.8436Z" fill="#455A64"/>
<path d="M21.6847 65.6331C21.9437 65.6331 22.1537 65.4552 22.1537 65.2357C22.1537 65.0163 21.9437 64.8384 21.6847 64.8384C21.4257 64.8384 21.2157 65.0163 21.2157 65.2357C21.2157 65.4552 21.4257 65.6331 21.6847 65.6331Z" fill="white"/>
<path d="M24.6113 67.7856C24.5722 68.0234 22.9828 72.8177 22.7548 73.2835C22.5268 73.7492 22.7548 74.6612 22.7548 74.6612C22.7548 74.6612 22.2011 75.8077 23.0805 76.5959C23.0805 76.5959 23.1424 77.6251 23.6049 77.8205C23.9241 77.9802 24.2035 78.2095 24.4224 78.4914C24.4224 78.4914 27.028 82.0481 27.3081 82.3998C27.7792 82.8947 28.276 83.3643 28.7965 83.8069C28.7965 83.8069 32.4769 82.465 30.5227 78.9572L29.4154 78.2537L29.7964 75.4136C29.7964 75.4136 30.7051 74.7003 30.5065 74.2248C30.4908 74.1642 30.462 74.1078 30.4221 74.0596C30.3822 74.0114 30.3322 73.9726 30.2757 73.9459C30.2191 73.9191 30.1574 73.9052 30.0948 73.905C30.0323 73.9048 29.9704 73.9183 29.9137 73.9446C29.9137 73.9446 30.2622 72.9675 29.4154 72.8014L26.1584 74.3713C26.1584 74.3713 28.5718 71.9416 28.2135 71.2706C27.8553 70.5997 27.7022 70.7072 27.7022 70.7072L24.582 73.3486C24.582 73.3486 25.3571 70.4401 25.5591 69.5119C25.9532 67.7856 24.6113 67.7856 24.6113 67.7856Z" fill="#FFBE9D"/>
<path d="M29.8587 74.1016C29.6941 74.3446 29.4968 74.5638 29.2724 74.753C28.2468 75.7053 27.0499 76.4547 25.7451 76.9612C25.4804 77.0807 25.2012 77.165 24.9146 77.212C25.1676 77.0737 25.4299 76.9529 25.6995 76.8505C26.3281 76.5649 26.9374 76.2385 27.5234 75.8734C28.1071 75.5054 28.6653 75.0984 29.1943 74.6553C29.4051 74.4583 29.6269 74.2734 29.8587 74.1016Z" fill="#EB996E"/>
<path d="M27.6923 70.7104C27.5413 70.9397 27.3582 71.1459 27.1483 71.3228C26.7868 71.6745 26.2624 72.1305 25.6599 72.606C24.4548 73.5603 23.38 74.2345 23.3572 74.1661C23.565 73.9882 23.7824 73.8218 24.0086 73.6678C24.4092 73.3682 24.9629 72.948 25.5622 72.4757C26.1615 72.0035 26.6989 71.5605 27.0767 71.2348C27.2697 71.0462 27.4753 70.871 27.6923 70.7104Z" fill="#EB996E"/>
<path d="M29.3725 74.8668C29.3725 74.8668 29.4311 74.7951 29.5712 74.8244C29.6647 74.8544 29.7464 74.913 29.8048 74.9919C29.8632 75.0707 29.8954 75.166 29.8969 75.2641C29.8674 75.5434 29.7378 75.8025 29.5321 75.9937C29.3399 76.2217 29.1217 76.466 28.8807 76.7135C28.4725 77.1374 28.0373 77.5345 27.5779 77.9023C27.3977 78.066 27.1974 78.2061 26.9819 78.3192C26.9493 78.2801 27.8091 77.5799 28.7504 76.5962C28.9849 76.352 29.2064 76.1109 29.4018 75.8927C29.5893 75.7295 29.7166 75.5082 29.7633 75.2641C29.764 75.185 29.7419 75.1074 29.6998 75.0404C29.6577 74.9734 29.5972 74.92 29.5256 74.8863C29.4474 74.844 29.3758 74.8831 29.3725 74.8668Z" fill="#EB996E"/>
<path d="M29.0738 78.1361C29.0347 78.1622 28.8686 77.9766 28.6341 77.7877C28.3996 77.5987 28.1878 77.462 28.2041 77.4261C28.2204 77.3903 28.4875 77.4457 28.7415 77.6574C28.9956 77.8691 29.1128 78.1133 29.0738 78.1361Z" fill="#EB996E"/>
<path d="M29.1654 80.1363C29.1849 80.1363 29.1849 80.3056 29.0774 80.5467C28.9343 80.8627 28.6871 81.1202 28.3772 81.2762C28.0651 81.4291 27.7106 81.4727 27.3708 81.4C27.1135 81.3414 26.9832 81.2404 26.9929 81.2241C27.0027 81.2078 27.1493 81.2567 27.3903 81.2827C27.7024 81.3175 28.0178 81.2612 28.2986 81.1208C28.5795 80.9804 28.8137 80.7618 28.9732 80.4913C29.097 80.2828 29.1393 80.133 29.1654 80.1363Z" fill="#EB996E"/>
<path d="M29.4579 72.8311C29.2324 72.9998 28.9888 73.1429 28.7316 73.2577C28.2691 73.4955 27.6274 73.8114 26.9044 74.1371C26.1813 74.4628 25.5169 74.7332 25.0316 74.9155C24.7752 75.0302 24.5078 75.1185 24.2336 75.1794C24.4717 75.0305 24.7237 74.905 24.986 74.8048L26.8327 73.9808L28.6762 73.1502C28.9261 73.0193 29.1878 72.9124 29.4579 72.8311Z" fill="#EB996E"/>
<path d="M62.0927 67.7437C62.0927 67.7437 62.0666 67.8153 62.0047 67.9521L61.7312 68.5514C61.4804 69.0823 61.1221 69.8542 60.6596 70.8313C59.7216 72.8148 58.3797 75.6614 56.7284 79.1432L56.7056 79.192H56.6535L44.2768 76.4431L44.3746 76.378C43.9283 78.5602 43.4626 80.8433 42.9838 83.1916L42.935 83.0972L43.9121 83.5271C48.1234 85.3641 52.1393 87.1098 55.8588 88.5396C56.7455 88.9177 57.6844 89.1593 58.6435 89.2562C59.5501 89.2743 60.4343 88.9734 61.1416 88.4061C61.4952 88.1552 61.8225 87.8693 62.1187 87.5528C62.2613 87.401 62.3909 87.2375 62.5063 87.0642C62.6203 86.8916 62.7473 86.7385 62.8483 86.5496C63.0568 86.1979 63.2652 85.8526 63.4443 85.5041C63.6235 85.1556 63.8091 84.8136 63.9752 84.4782C65.3041 81.7781 66.2226 79.5145 66.874 77.9641C67.1997 77.189 67.4342 76.5864 67.6035 76.1695L67.7957 75.7005C67.838 75.5963 67.8641 75.5442 67.8641 75.5442C67.8641 75.5442 67.8478 75.5996 67.812 75.707L67.6361 76.1826C67.4798 76.5962 67.2453 77.2053 66.9326 77.9902C66.304 79.5536 65.4018 81.8204 64.0827 84.5335C63.9166 84.8592 63.757 85.2175 63.5551 85.566C63.3531 85.9145 63.1707 86.2663 62.959 86.6213C62.8613 86.8004 62.7311 86.9698 62.6171 87.1456C62.4976 87.3247 62.3637 87.4935 62.2164 87.6505C61.9194 87.972 61.5922 88.2643 61.2393 88.5234C60.8727 88.7944 60.4705 89.0136 60.044 89.1748C59.5986 89.3403 59.1248 89.4156 58.65 89.3962C57.6743 89.3024 56.7187 89.0596 55.8164 88.6764C52.0872 87.2629 48.0713 85.5106 43.8567 83.6704L42.8796 83.2405L42.8145 83.2144L42.8307 83.146C43.3095 80.801 43.7785 78.5146 44.228 76.3356V76.2542L44.3094 76.2705L56.6861 79.0552L56.6111 79.0911L60.5912 70.8215L61.6953 68.5416L61.9885 67.9521C62.0536 67.812 62.0927 67.7437 62.0927 67.7437Z" fill="#263238"/>
<path d="M66.9167 88.3574C66.8263 88.4618 66.7235 88.5548 66.6105 88.6343C66.4086 88.8069 66.1024 89.0381 65.7116 89.3085C63.6528 90.7081 61.3049 91.6255 58.8426 91.9922C58.3736 92.0574 57.9892 92.0965 57.7254 92.1095C57.588 92.1251 57.4492 92.1251 57.3118 92.1095C57.4444 92.0712 57.581 92.0482 57.7189 92.0411C57.9795 92.0085 58.3703 91.9532 58.823 91.8685C61.252 91.4429 63.5711 90.5348 65.6432 89.1977C66.0406 88.9437 66.3565 88.7287 66.5714 88.5724C66.6786 88.4887 66.7943 88.4166 66.9167 88.3574Z" fill="#263238"/>
<path d="M66.8384 89.6729C66.8384 89.6729 66.7766 89.7575 66.6463 89.8878C66.516 90.0181 66.3206 90.1972 66.0698 90.4122C64.7614 91.5353 63.3116 92.4825 61.7575 93.2295C61.4611 93.3728 61.2168 93.4803 61.0442 93.5552C60.9577 93.5982 60.8656 93.6289 60.7706 93.6464C61.07 93.4554 61.3811 93.2835 61.7021 93.1318C62.2819 92.8061 63.0733 92.3729 63.9104 91.829C64.7474 91.2851 65.477 90.7379 65.9916 90.3308C66.2602 90.0944 66.543 89.8747 66.8384 89.6729Z" fill="#263238"/>
<path d="M58.21 42.2341C57.9039 41.4231 58.0244 40.5209 57.9006 39.6643C57.6336 37.772 56.1158 36.2575 54.357 35.5182C52.7285 34.8309 50.7189 34.9775 48.7452 35.6126C47.377 36.0247 46.1531 36.8151 45.2146 37.8925C44.6205 38.6291 44.2109 39.4969 44.02 40.4237C43.8291 41.3506 43.8623 42.3096 44.117 43.221L53.7838 41.8335C54.6892 42.5859 55.6142 43.348 56.7151 43.7649C57.0308 43.9052 57.3776 43.9613 57.7215 43.9278C57.8937 43.9084 58.0566 43.8397 58.1907 43.7299C58.3247 43.6201 58.4242 43.4739 58.4771 43.3089C58.5553 42.9474 58.3436 42.5859 58.21 42.2341Z" fill="#263238"/>
<path d="M52.2042 35.0337C54.318 34.6754 56.1778 35.4929 57.9594 36.6882C59.7428 37.9158 61.1069 39.6607 61.8678 41.6877C62.682 43.795 62.8872 46.8436 62.2554 49.016C61.9744 50.0378 61.4507 50.9766 60.7288 51.7523C60.0069 52.5281 59.1082 53.118 58.1092 53.4716C55.2007 54.4975 51.8395 54.3738 49.3772 52.4945C46.9149 50.6152 45.5143 47.5504 45.4003 44.466C45.2931 42.3246 45.8629 40.2039 47.0288 38.4047C47.6157 37.5145 48.3794 36.7547 49.2726 36.1725C50.1658 35.5903 51.1692 35.1982 52.2205 35.0206" fill="#263238"/>
<path d="M48.9204 59.7644C48.9204 59.9337 48.9367 60.1194 48.9464 60.318C48.9464 60.318 48.9464 60.3734 48.9464 60.4646C49.0507 61.6339 49.5978 63.8356 52.2035 63.8682C55.4605 63.9105 57.9521 60.2855 58.3234 59.7253L58.4439 41.7629C58.4374 41.3682 58.2828 40.9903 58.0106 40.7044C57.7385 40.4184 57.3689 40.2451 56.975 40.219L48.5393 38.4212C45.8555 38.2388 44.1977 41.6 44.1293 44.2838C44.0544 47.277 44.0805 50.9313 44.5169 53.1429C45.3963 57.5919 48.8487 58.0284 48.8487 58.0284C48.8487 58.0284 48.8618 58.5462 48.9204 59.7644Z" fill="#FFBE9D"/>
<path d="M45.4028 47.5826C45.4071 47.7324 45.4698 47.8745 45.5776 47.9786C45.6853 48.0827 45.8295 48.1405 45.9793 48.1396C46.0526 48.1431 46.1259 48.1317 46.1947 48.1062C46.2635 48.0806 46.3265 48.0414 46.3797 47.9909C46.433 47.9404 46.4755 47.8796 46.5046 47.8123C46.5337 47.7449 46.549 47.6723 46.5493 47.5989C46.5451 47.4497 46.4828 47.3081 46.3757 47.2041C46.2687 47.1001 46.1253 47.0419 45.9761 47.042C45.9027 47.0389 45.8295 47.0506 45.7607 47.0763C45.6919 47.1019 45.6289 47.1411 45.5755 47.1915C45.5221 47.2419 45.4793 47.3025 45.4496 47.3696C45.42 47.4368 45.4041 47.5092 45.4028 47.5826Z" fill="#263238"/>
<path d="M44.9873 46.0226C45.0622 46.0943 45.4856 45.7555 46.1044 45.736C46.7233 45.7164 47.1858 46.0063 47.2509 45.9282C47.316 45.85 47.202 45.7588 47.0001 45.6252C46.7261 45.4489 46.4039 45.3624 46.0784 45.3777C45.7568 45.3887 45.4473 45.5029 45.1957 45.7034C45.0101 45.8532 44.9514 45.99 44.9873 46.0226Z" fill="#263238"/>
<path d="M50.9407 47.4487C50.9449 47.5988 51.0075 47.7413 51.1152 47.8459C51.2228 47.9505 51.3671 48.009 51.5172 48.0089C51.5904 48.0115 51.6635 47.9996 51.7321 47.9737C51.8007 47.9479 51.8634 47.9087 51.9168 47.8584C51.9701 47.8081 52.0129 47.7477 52.0427 47.6807C52.0725 47.6138 52.0887 47.5416 52.0904 47.4683C52.0853 47.3185 52.0225 47.1765 51.915 47.072C51.8075 46.9676 51.6638 46.9088 51.5139 46.9081C51.4407 46.9055 51.3676 46.9174 51.299 46.9433C51.2304 46.9691 51.1676 47.0083 51.1143 47.0586C51.061 47.1089 51.0182 47.1693 50.9884 47.2363C50.9586 47.3032 50.9424 47.3754 50.9407 47.4487Z" fill="#263238"/>
<path d="M50.8554 45.879C50.9271 45.9507 51.3505 45.612 51.9693 45.5924C52.5882 45.5729 53.0507 45.8628 53.1158 45.7846C53.181 45.7064 53.0702 45.6185 52.865 45.4817C52.5922 45.3054 52.271 45.2188 51.9465 45.2342C51.624 45.2451 51.3135 45.3593 51.0606 45.5599C50.8782 45.7097 50.8164 45.8465 50.8554 45.879Z" fill="#263238"/>
<path d="M48.9961 50.5759C48.6658 50.4857 48.3255 50.4375 47.9832 50.4326C47.8268 50.4326 47.677 50.3967 47.6575 50.2893C47.6386 50.1266 47.6693 49.962 47.7454 49.817C47.879 49.4294 48.019 49.0255 48.1688 48.5989C48.7518 46.8662 49.1687 45.4396 49.0971 45.4168C49.0254 45.394 48.4978 46.7815 47.9148 48.5175C47.7747 48.9441 47.6379 49.3512 47.5109 49.7421C47.4201 49.9364 47.3993 50.1563 47.4523 50.3642C47.4775 50.4193 47.5149 50.4678 47.5618 50.5062C47.6086 50.5446 47.6637 50.5718 47.7226 50.5857C47.8101 50.6061 47.8999 50.6149 47.9897 50.6117C48.3254 50.6414 48.6634 50.6294 48.9961 50.5759Z" fill="#263238"/>
<path d="M48.8428 57.9043C50.952 57.8573 53.0066 57.2247 54.777 56.0771C54.777 56.0771 53.3863 59.2332 48.8916 58.9824L48.8428 57.9043Z" fill="#EB996E"/>
<path d="M49.3116 52.0548C49.4226 51.9028 49.5707 51.7818 49.7417 51.7031C49.9127 51.6244 50.101 51.5908 50.2887 51.6054C50.425 51.6119 50.5586 51.6461 50.6813 51.7061C50.8039 51.766 50.913 51.8503 51.002 51.9539C51.0882 52.0541 51.1418 52.1783 51.1558 52.3097C51.1697 52.4412 51.1434 52.5738 51.0801 52.69C50.9849 52.8041 50.8579 52.8874 50.7152 52.9292C50.5725 52.9709 50.4207 52.9693 50.2789 52.9245C49.9823 52.8333 49.7075 52.6826 49.4712 52.4815C49.399 52.4359 49.3369 52.3761 49.2888 52.3056C49.2658 52.272 49.2535 52.2323 49.2535 52.1916C49.2535 52.151 49.2658 52.1112 49.2888 52.0776" fill="#EB996E"/>
<path d="M50.8295 50.9336C50.7286 50.9336 50.7514 51.6046 50.1944 52.0997C49.6375 52.5947 48.9242 52.5524 48.9209 52.6436C48.9177 52.7348 49.087 52.7706 49.3867 52.7673C49.7794 52.7563 50.1559 52.6089 50.4517 52.3504C50.7347 52.1001 50.9098 51.7499 50.9403 51.3733C50.9566 51.0932 50.8751 50.9304 50.8295 50.9336Z" fill="#263238"/>
<path d="M50.8911 44.0455C50.9563 44.2116 51.5719 44.1074 52.2982 44.1692C53.0245 44.2311 53.6205 44.4037 53.7117 44.2507C53.7541 44.1757 53.6433 44.0227 53.4023 43.8696C53.0792 43.6825 52.7179 43.5712 52.3455 43.5441C51.9731 43.517 51.5994 43.5749 51.2527 43.7133C50.9921 43.8305 50.8618 43.9673 50.8911 44.0455Z" fill="#263238"/>
<path d="M45.0639 43.3122C45.1779 43.449 45.5981 43.2894 46.1094 43.2634C46.6208 43.2373 47.0572 43.322 47.1517 43.1689C47.194 43.0973 47.1191 42.9605 46.9269 42.8432C46.6674 42.6906 46.3673 42.6213 46.0671 42.6445C45.765 42.6638 45.4767 42.7777 45.2431 42.9702C45.0672 43.1005 45.0151 43.2471 45.0639 43.3122Z" fill="#263238"/>
<path d="M59.7607 40.9353C58.8878 38.3622 55.0739 34.8577 52.3706 35.0987L48.0941 37.7695C48.2489 38.5042 48.5989 39.1836 49.1073 39.7362C49.6157 40.2887 50.2637 40.694 50.9831 40.9092C51.7517 41.1274 52.6735 41.1763 53.1425 41.8244C53.6115 42.4726 53.364 43.4692 53.8102 44.1532C54.4257 45.101 56.064 45.0261 56.5298 46.0553C56.735 46.5048 56.6438 47.0324 56.8555 47.4949C57.1388 48.0877 58.6696 48.8205 59.295 48.6088C59.9203 48.3971 59.9008 47.3288 60.0962 46.7653C60.3444 46.1293 60.3628 45.4267 60.1483 44.7785C59.8584 43.5181 60.1841 42.1599 59.7607 40.9353Z" fill="#263238"/>
<path d="M57.4508 49.172C57.4508 48.8463 57.7961 48.0385 58.125 47.9734C58.9979 47.804 60.5841 47.8171 60.685 50.0481C60.8186 53.0999 57.7277 52.6049 57.7179 52.5169C57.7081 52.429 57.4931 50.325 57.4508 49.172Z" fill="#FFBE9D"/>
<path d="M58.598 51.3216C58.598 51.3216 58.6533 51.3542 58.7445 51.3933C58.8733 51.4436 59.0163 51.4436 59.1451 51.3933C59.4708 51.2597 59.7086 50.7419 59.6988 50.1849C59.6967 49.9234 59.6343 49.666 59.5164 49.4325C59.4847 49.338 59.43 49.2528 59.3573 49.1846C59.2845 49.1163 59.1959 49.0673 59.0995 49.0417C59.0379 49.0284 58.9736 49.0371 58.9177 49.0663C58.8617 49.0954 58.8178 49.1432 58.7934 49.2013C58.7543 49.2892 58.7771 49.3479 58.7608 49.3544C58.7445 49.3609 58.6924 49.3055 58.712 49.1785C58.7254 49.1018 58.7658 49.0325 58.8259 48.9831C58.8657 48.9493 58.9119 48.9238 58.9617 48.9082C59.0114 48.8925 59.0639 48.887 59.1158 48.8919C59.2422 48.9116 59.3615 48.9632 59.4623 49.0419C59.5632 49.1205 59.6423 49.2236 59.6923 49.3413C59.8326 49.5996 59.9086 49.8878 59.9138 50.1817C59.9138 50.7972 59.6304 51.3867 59.1972 51.5333C59.1161 51.5609 59.0298 51.57 58.9447 51.5599C58.8596 51.5497 58.7778 51.5206 58.7054 51.4747C58.6077 51.3933 58.5882 51.3281 58.598 51.3216Z" fill="#EB996E"/>
<path d="M62.5258 44.9993C62.6163 44.703 62.6548 44.3934 62.6398 44.084C62.6486 43.3347 62.5308 42.5892 62.2913 41.879C62.0522 41.1741 61.6978 40.5137 61.2425 39.9248C61.0639 39.6723 60.8436 39.452 60.5911 39.2734C60.5358 39.3125 61.5682 40.3287 62.0926 41.967C62.617 43.6053 62.4639 44.9993 62.5258 44.9993Z" fill="#0D9CFA"/>
<path d="M48.9834 36.8478C48.7 38.092 46.811 39.6814 45.9804 40.6488C44.3975 42.4922 44.0979 42.7626 44.1109 48.3223C43.2874 46.5917 42.8527 44.7018 42.8374 42.7854C42.8748 41.161 43.505 39.6064 44.6092 38.4145C45.1662 37.8304 45.8512 37.3838 46.6103 37.1096C47.3694 36.8355 48.1817 36.7414 48.9834 36.8348" fill="#263238"/>
<path d="M61.3135 40.8966C61.1449 40.9539 60.9716 40.9964 60.7957 41.0236C60.5915 41.0705 60.3849 41.1064 60.1768 41.1311C59.9358 41.1637 59.659 41.2093 59.3528 41.2255C58.6324 41.2869 57.9083 41.2935 57.1869 41.2451C55.4166 41.1317 53.6801 40.7072 52.0571 39.9911C51.3968 39.6997 50.7589 39.3601 50.1485 38.9749C49.8814 38.8186 49.66 38.6492 49.458 38.5092C49.2856 38.3906 49.1193 38.2634 48.9597 38.1281C48.8162 38.0228 48.6821 37.9051 48.5591 37.7764C48.7147 37.8626 48.8629 37.9618 49.002 38.0728C49.1388 38.1737 49.3115 38.2975 49.5166 38.4245C49.7218 38.5515 49.9466 38.7176 50.2136 38.8642C50.8286 39.2319 51.4673 39.5584 52.1255 39.8413C53.7381 40.5285 55.4522 40.9476 57.1999 41.0822C57.9131 41.1353 58.629 41.1418 59.343 41.1018C59.6492 41.1018 59.9228 41.0562 60.1638 41.0334C60.4048 41.0106 60.6133 40.9845 60.7826 40.9585C60.9574 40.922 61.1351 40.9013 61.3135 40.8966Z" fill="#455A64"/>
<path d="M61.6294 43.0844C61.5156 43.1289 61.3961 43.1574 61.2744 43.169C60.9516 43.2303 60.6253 43.2717 60.2973 43.2928C58.1027 43.4574 55.9044 43.0241 53.9364 42.0389C53.64 41.8919 53.3518 41.7288 53.0733 41.5503C52.9671 41.4923 52.8686 41.4211 52.7802 41.3386C52.7964 41.3093 53.2394 41.5796 53.9918 41.9249C55.9642 42.8295 58.1226 43.2547 60.2908 43.1658C61.1148 43.1365 61.6262 43.0518 61.6294 43.0844Z" fill="#455A64"/>
<path d="M62.4026 43.1597C62.4546 43.3081 62.4885 43.4623 62.5036 43.6189C62.5695 44.0418 62.6119 44.468 62.6306 44.8956C62.6567 45.4363 62.6664 46.0812 62.6306 46.7977C62.5963 47.5772 62.4872 48.3516 62.3049 49.1102C61.9522 50.5091 61.1171 51.7386 59.9468 52.5822C59.5924 52.8259 59.2123 53.0302 58.8134 53.1912C58.6712 53.259 58.5214 53.3093 58.3672 53.3411C58.5 53.2581 58.6395 53.1862 58.7841 53.1261C59.164 52.9411 59.5269 52.7231 59.8687 52.4747C60.3738 52.1047 60.8141 51.6535 61.1715 51.1393C61.6222 50.5198 61.9535 49.8218 62.1486 49.0809C62.3234 48.3319 62.4324 47.569 62.4743 46.801C62.5199 46.091 62.5264 45.4526 62.5134 44.9152C62.5003 44.3778 62.4775 43.9381 62.4482 43.6417C62.419 43.4827 62.4038 43.3214 62.4026 43.1597Z" fill="#455A64"/>
<path d="M39.3948 85.8326C39.3622 85.8326 39.4469 85.4157 39.4436 84.7415C39.4422 84.3493 39.4062 83.958 39.3362 83.5722C39.2458 83.1004 39.1117 82.6381 38.9356 82.1912C38.7524 81.7476 38.5278 81.3223 38.2646 80.921C38.045 80.595 37.7988 80.2878 37.5285 80.0025C37.0628 79.5172 36.7143 79.2795 36.7338 79.2534C36.827 79.2894 36.9138 79.34 36.9911 79.4032C37.0873 79.4674 37.1797 79.537 37.268 79.6117C37.389 79.7068 37.5043 79.8091 37.6132 79.9178C37.9031 80.1957 38.1639 80.5024 38.3916 80.8331C38.672 81.2409 38.9079 81.6777 39.0951 82.1359C39.2752 82.5943 39.4073 83.0702 39.4892 83.5559C39.5533 83.952 39.5784 84.3535 39.5642 84.7545C39.5602 84.9081 39.5483 85.0614 39.5283 85.2137C39.518 85.33 39.4995 85.4453 39.473 85.559C39.4618 85.6538 39.4354 85.7462 39.3948 85.8326Z" fill="#263238"/>
<path d="M40.6682 84.1491C40.6389 84.1491 40.5867 83.8233 40.4239 83.3153C39.9968 81.9897 39.1753 80.8261 38.0691 79.9801C37.6457 79.6544 37.3558 79.498 37.3688 79.472C37.3819 79.4459 37.4502 79.4948 37.587 79.5599C37.7805 79.6526 37.9657 79.7616 38.1407 79.8856C39.3179 80.6973 40.1677 81.9015 40.5379 83.2827C40.5953 83.4887 40.6366 83.6989 40.6617 83.9113C40.6779 84.0644 40.6812 84.1458 40.6682 84.1491Z" fill="#263238"/>
</g>
</g>
<path d="M37.1549 48.9892L33.1244 48.5014C29.9081 50.6503 26.0043 51.5184 22.1804 50.9352C18.3565 50.3519 14.8891 48.3594 12.4597 45.3493C10.0303 42.3392 8.81464 38.5293 9.05174 34.6685C9.28883 30.8076 10.9615 27.1751 13.7409 24.4849C16.5204 21.7947 20.2056 20.2414 24.0721 20.1304C27.9386 20.0194 31.7069 21.3587 34.6361 23.885C37.5653 26.4113 39.4436 29.9419 39.9018 33.7828C40.36 37.6237 39.365 41.4971 37.1123 44.6416L37.1549 48.9892Z" fill="white"/>
<path d="M37.1548 48.989C37.1548 48.989 37.1548 48.8853 37.1548 48.6902C37.1548 48.4951 37.1548 48.2146 37.1548 47.8487C37.1548 47.1048 37.1182 46.0194 37.0938 44.6353L37.1853 44.678C37.1801 44.6833 37.174 44.6876 37.1672 44.6905C37.1604 44.6934 37.153 44.6949 37.1456 44.6949C37.1382 44.6949 37.1309 44.6934 37.1241 44.6905C37.1173 44.6876 37.1111 44.6833 37.106 44.678C37.0989 44.6671 37.0951 44.6543 37.0951 44.6414C37.0951 44.6284 37.0989 44.6157 37.106 44.6048C38.5595 42.564 39.4912 40.1983 39.8194 37.7144C40.0327 36.0917 39.9895 34.4456 39.6914 32.8363C39.3431 31.0087 38.6676 29.2591 37.6975 27.6716C36.6109 25.9229 35.1918 24.4043 33.5206 23.202C31.7196 21.8906 29.6491 20.997 27.4595 20.5861C25.1296 20.1534 22.7318 20.2556 20.4472 20.8849C18.0467 21.5557 15.8507 22.813 14.0568 24.5435C13.1275 25.4092 12.3083 26.3861 11.6178 27.4521C11.3068 27.9948 11.008 28.5314 10.7153 29.0862L10.3495 29.9399L10.1726 30.3607L10.0324 30.7997C9.29512 33.0764 9.08658 35.4913 9.42262 37.8608C9.74173 40.0892 10.5587 42.2171 11.8129 44.0865C13.9991 47.4185 17.3908 49.7743 21.2765 50.6597L22.557 50.8793C22.9777 50.9463 23.3984 50.9524 23.7765 50.9951C24.5651 51.0466 25.3566 51.0303 26.1424 50.9463C28.6268 50.709 31.0164 49.872 33.1059 48.5073H33.1425L36.1121 48.8975L36.8926 49.0073L37.167 49.05H36.9109L36.1426 48.9707L33.1303 48.6414H33.1669C31.0764 50.0548 28.6703 50.9322 26.1607 51.1963C25.3653 51.2876 24.5633 51.308 23.7643 51.2573C23.3497 51.2207 22.9289 51.2146 22.5021 51.1537L21.2033 50.9341C19.3475 50.5218 17.5827 49.7738 15.9959 48.7268C14.2319 47.5366 12.7228 46.0068 11.5568 44.2267C10.2779 42.3296 9.44415 40.168 9.11774 37.9035C8.76905 35.492 8.97764 33.0326 9.7275 30.7143L9.86775 30.2692L10.0507 29.8363C10.1787 29.5497 10.3007 29.2265 10.4226 28.9704C10.697 28.3972 11.0324 27.8545 11.3373 27.2996C12.0286 26.2177 12.8475 25.2227 13.7763 24.3362C15.6027 22.5839 17.8366 21.314 20.2764 20.641C22.6241 19.9798 25.0926 19.8692 27.49 20.3178C29.7173 20.7379 31.822 21.6526 33.6486 22.9947C35.3366 24.2195 36.7664 25.7653 37.856 27.5435C38.8378 29.1573 39.5176 30.9363 39.8621 32.7936C40.1534 34.4266 40.1884 36.095 39.9658 37.7388C39.6159 40.2445 38.6547 42.6255 37.167 44.6718L37.0816 44.5987C37.0867 44.5933 37.0929 44.5891 37.0997 44.5862C37.1065 44.5833 37.1138 44.5818 37.1212 44.5818C37.1286 44.5818 37.136 44.5833 37.1428 44.5862C37.1496 44.5891 37.1557 44.5933 37.1609 44.5987C37.1636 44.6044 37.165 44.6106 37.165 44.617C37.165 44.6233 37.1636 44.6295 37.1609 44.6353V47.8853C37.1609 48.239 37.1609 48.4951 37.1609 48.7146C37.1609 48.9341 37.1548 48.989 37.1548 48.989Z" fill="#263238"/>
<path d="M32.192 34.0365C32.0471 33.0824 31.6116 32.1961 30.9447 31.4986C30.3174 30.7841 29.4817 30.2845 28.5554 30.0701C28.0632 29.9733 27.5565 29.9768 27.0657 30.0802C26.5748 30.1836 26.1098 30.3849 25.6984 30.6719C25.2096 31.0185 24.8126 31.4789 24.5418 32.0134C24.2644 31.5471 23.8866 31.1483 23.436 30.8459C23.0169 30.5691 22.5462 30.3798 22.0521 30.2895C21.558 30.1992 21.0508 30.2096 20.5609 30.3202C19.6412 30.559 18.8195 31.0802 18.2114 31.8104C17.5621 32.5304 17.1507 33.4331 17.0331 34.3955C16.9007 35.6238 17.1677 36.8622 17.7945 37.9268C18.5209 39.0037 19.4942 39.8913 20.6334 40.5156C22.4825 41.6033 24.9153 42.9484 24.9153 42.9484C24.9153 42.9484 26.9348 41.3966 28.7512 40.269C29.8757 39.6139 30.8268 38.6989 31.5248 37.6005C32.1248 36.5152 32.3587 35.2654 32.192 34.0365Z" fill="#0D9CFA"/>
<defs>
<clipPath id="clip0_121_5838">
<rect width="153.648" height="100" fill="white" transform="translate(0 16.2339)"/>
</clipPath>
<clipPath id="clip1_121_5838">
<rect width="79.9903" height="103.402" fill="white" transform="translate(-2.38379 13)"/>
</clipPath>
</defs>
</svg>
